<svg xmlns="http://www.w3.org/2000/svg" viewBox="0 0 32 32" id="crown"><path fill="#1f1521" d="M28,8.47a2,2,0,0,1,0,4,1.77,1.77,0,0,1-.4-.08l-.53-.18a1.8,1.8,0,0,1-.6-.49l-.34-.55a1.89,1.89,0,0,1-.15-.72A2,2,0,0,1,28,8.47Zm-12-2a1.87,1.87,0,0,1,1.87,1.86,1.83,1.83,0,0,1-.83,1.51L16.7,10a2,2,0,0,1-.69.14,1.83,1.83,0,0,1-.7-.15l-.2-.12a1.83,1.83,0,0,1-1-1.6A1.86,1.86,0,0,1,16,6.45Zm-4,9.89,3.05-4.92a2.9,2.9,0,0,0,1.9,0L20,16.34l5.68-3.53a3.21,3.21,0,0,0,.58.45l-2.7,8.11H8.45l-2.7-8.11a3.21,3.21,0,0,0,.58-.45ZM4,8.78a1.7,1.7,0,0,1,1.71,1.71,1.74,1.74,0,0,1-.12.61l-.29.47A1.7,1.7,0,1,1,4,8.78ZM23.63,25.72H8.4V23.54H23.63Z" data-name="Layer 19"></path></svg>