<svg xmlns="http://www.w3.org/2000/svg" xmlns:xlink="http://www.w3.org/1999/xlink" version="1.1" width="256" height="256" viewBox="0 0 256 256" xml:space="preserve">

<defs>
</defs>
<g style="stroke: none; stroke-width: 0; stroke-dasharray: none; stroke-linecap: butt; stroke-linejoin: miter; stroke-miterlimit: 10; fill: none; fill-rule: nonzero; opacity: 1;" transform="translate(1.4065934065934016 1.4065934065934016) scale(2.81 2.81)" >
	<path d="M 77.737 77.905 H 12.263 c -1.426 0 -2.654 -1.003 -2.939 -2.4 L 0.061 30.111 c -0.238 -1.167 0.236 -2.363 1.209 -3.05 c 0.973 -0.688 2.26 -0.733 3.279 -0.119 l 24.018 14.477 L 42.313 13.76 c 0.503 -1.012 1.532 -1.655 2.662 -1.665 c 1.14 -0.031 2.168 0.617 2.689 1.62 l 14.211 27.432 l 23.577 -14.206 c 1.019 -0.614 2.307 -0.567 3.278 0.119 c 0.973 0.687 1.447 1.884 1.209 3.05 l -9.263 45.394 C 80.392 76.902 79.163 77.905 77.737 77.905 z M 14.712 71.905 h 60.576 l 7.406 -36.297 L 62.23 47.938 c -0.711 0.428 -1.568 0.54 -2.363 0.317 c -0.798 -0.226 -1.467 -0.771 -1.849 -1.507 L 45.056 21.724 L 32.492 47.003 c -0.373 0.751 -1.042 1.311 -1.847 1.545 s -1.67 0.122 -2.388 -0.311 L 7.306 35.609 L 14.712 71.905 z" style="stroke: none; stroke-width: 1; stroke-dasharray: none; stroke-linecap: butt; stroke-linejoin: miter; stroke-miterlimit: 10; fill: rgb(0,0,0); fill-rule: nonzero; opacity: 1;" transform=" matrix(1 0 0 1 0 0) " stroke-linecap="round" />
</g>
</svg>